<svg width="210" height="50" viewBox="0 0 210 50" fill="none" xmlns="http://www.w3.org/2000/svg">
<path fill-rule="evenodd" clip-rule="evenodd" d="M24.2223 44.3854L25.4077 42.3337C25.6598 41.8975 26.0958 41.6453 26.5999 41.6453H28.964C29.4681 41.6453 29.9042 41.8975 30.1562 42.3337L31.3417 44.3854C31.5937 44.8217 31.5937 45.3261 31.3417 45.7623L30.1562 47.814C29.9042 48.2502 29.4681 48.5025 28.964 48.5025H26.5999C26.0958 48.5025 25.6598 48.2502 25.4077 47.814L24.2223 45.7623C23.9702 45.3261 23.9702 44.8217 24.2223 44.3854Z" fill="#16AC59"/>
<path fill-rule="evenodd" clip-rule="evenodd" d="M24.2223 36.3285L25.4077 34.2768C25.6598 33.8405 26.0958 33.5883 26.5999 33.5883H28.964C29.4681 33.5883 29.9042 33.8405 30.1562 34.2768L31.3417 36.3285C31.5937 36.7647 31.5937 37.2691 31.3417 37.7053L30.1562 39.7502C29.9042 40.1865 29.4681 40.4387 28.964 40.4387H26.5999C26.0958 40.4387 25.6598 40.1865 25.4077 39.7502L24.2223 37.7053C23.9702 37.2691 23.9702 36.7715 24.2223 36.3285Z" fill="#16AC59"/>
<path fill-rule="evenodd" clip-rule="evenodd" d="M24.2223 12.2948L25.4077 10.2431C25.6598 9.80683 26.0958 9.55463 26.5999 9.55463H28.964C29.4681 9.55463 29.9042 9.80683 30.1562 10.2431L31.3417 12.2948C31.5937 12.731 31.5937 13.2354 31.3417 13.6717L30.1494 15.7165C29.8973 16.1528 29.4613 16.405 28.9572 16.405H26.5931C26.089 16.405 25.653 16.1528 25.4009 15.7165L24.2223 13.6717C23.9702 13.2354 23.9702 12.731 24.2223 12.2948Z" fill="#16AC59"/>
<path fill-rule="evenodd" clip-rule="evenodd" d="M24.2223 4.2377L25.4077 2.186C25.6598 1.74976 26.0958 1.49756 26.5999 1.49756H28.964C29.4681 1.49756 29.9042 1.74976 30.1562 2.186L31.3417 4.2377C31.5937 4.67394 31.5937 5.17834 31.3417 5.61458L30.1562 7.66628C29.9042 8.10252 29.4681 8.35472 28.964 8.35472H26.5999C26.0958 8.35472 25.6598 8.10252 25.4077 7.66628L24.2223 5.61458C23.9702 5.17834 23.9702 4.68076 24.2223 4.2377Z" fill="#16AC59"/>
<path fill-rule="evenodd" clip-rule="evenodd" d="M17.4237 40.5343L18.5138 38.6462C18.7454 38.244 19.1474 38.0123 19.6106 38.0123H21.7907C22.254 38.0123 22.656 38.244 22.8876 38.6462L23.9777 40.5343C24.2093 40.9364 24.2093 41.4 23.9777 41.8021L22.8876 43.6902C22.656 44.0924 22.254 44.3241 21.7907 44.3241H19.6106C19.1474 44.3241 18.7454 44.0924 18.5138 43.6902L17.4237 41.8021C17.1921 41.4 17.1921 40.9364 17.4237 40.5343Z" fill="#16AC59"/>
<path fill-rule="evenodd" clip-rule="evenodd" d="M17.4237 8.44359L18.5138 6.55548C18.7454 6.15332 19.1474 5.92157 19.6106 5.92157H21.7907C22.254 5.92157 22.656 6.15332 22.8876 6.55548L23.9777 8.44359C24.2093 8.84575 24.2093 9.30926 23.9777 9.71142L22.8876 11.5995C22.656 12.0017 22.254 12.2334 21.7907 12.2334H19.6106C19.1474 12.2334 18.7454 12.0017 18.5138 11.5995L17.4237 9.71142C17.1921 9.30926 17.1921 8.85257 17.4237 8.44359Z" fill="#16AC59"/>
<path fill-rule="evenodd" clip-rule="evenodd" d="M10.8892 36.7241L11.768 35.204C11.9588 34.8768 12.279 34.6928 12.6537 34.6928H14.4114C14.7861 34.6928 15.1063 34.8768 15.2971 35.204L16.1759 36.7241C16.3667 37.0512 16.3667 37.4193 16.1759 37.7465L15.2971 39.2665C15.1063 39.5937 14.7861 39.7777 14.4114 39.7777H12.6537C12.279 39.7777 11.9588 39.5937 11.768 39.2665L10.8892 37.7465C10.6984 37.4193 10.6984 37.0444 10.8892 36.7241Z" fill="#16AC59"/>
<path fill-rule="evenodd" clip-rule="evenodd" d="M10.7121 28.6332L11.6455 27.0109C11.8431 26.6633 12.1905 26.4656 12.5857 26.4656H14.4592C14.8612 26.4656 15.2018 26.6633 15.3994 27.0109L16.3327 28.6332C16.5303 28.9808 16.5303 29.3762 16.3327 29.7238L15.3994 31.3461C15.2018 31.6937 14.8543 31.8914 14.4592 31.8914H12.5857C12.1837 31.8914 11.8431 31.6937 11.6455 31.3461L10.7121 29.7238C10.5146 29.3762 10.5146 28.9808 10.7121 28.6332Z" fill="#16AC59"/>
<path fill-rule="evenodd" clip-rule="evenodd" d="M10.7121 20.6444L11.6455 19.0222C11.8431 18.6745 12.1905 18.4769 12.5857 18.4769H14.4592C14.8612 18.4769 15.2018 18.6745 15.3994 19.0222L16.3327 20.6444C16.5303 20.9921 16.5303 21.3874 16.3327 21.735L15.3994 23.3573C15.2018 23.7049 14.8543 23.9026 14.4592 23.9026H12.5857C12.1837 23.9026 11.8431 23.7049 11.6455 23.3573L10.7121 21.735C10.5146 21.3874 10.5146 20.9853 10.7121 20.6444Z" fill="#16AC59"/>
<path fill-rule="evenodd" clip-rule="evenodd" d="M10.8892 12.6216L11.768 11.1016C11.9588 10.7744 12.279 10.5903 12.6537 10.5903H14.4114C14.7861 10.5903 15.1063 10.7744 15.2971 11.1016L16.1759 12.6216C16.3667 12.9488 16.3667 13.3168 16.1759 13.644L15.2971 15.1641C15.1063 15.4912 14.7861 15.6753 14.4114 15.6753H12.6537C12.279 15.6753 11.9588 15.4912 11.768 15.1641L10.8892 13.644C10.6984 13.3168 10.6984 12.9488 10.8892 12.6216Z" fill="#16AC59"/>
<path fill-rule="evenodd" clip-rule="evenodd" d="M5.84227 33.0638L6.31235 32.2527C6.41455 32.0823 6.58487 31.98 6.78244 31.98H7.72261C7.92018 31.98 8.09731 32.0823 8.19269 32.2527L8.66278 33.0638C8.76497 33.2342 8.76497 33.4387 8.66278 33.6091L8.19269 34.4203C8.0905 34.5907 7.92018 34.6929 7.72261 34.6929H6.78244C6.58487 34.6929 6.40773 34.5907 6.31235 34.4203L5.84227 33.6091C5.74008 33.4319 5.74008 33.2342 5.84227 33.0638Z" fill="#16AC59"/>
<path fill-rule="evenodd" clip-rule="evenodd" d="M5.11241 24.9318L5.82094 23.6981C5.97083 23.4322 6.23653 23.2823 6.53629 23.2823H7.96017C8.26675 23.2823 8.52563 23.4322 8.67552 23.6981L9.38405 24.9318C9.53393 25.1977 9.53393 25.4976 9.38405 25.7566L8.67552 26.9903C8.52563 27.2562 8.25993 27.4061 7.96017 27.4061H6.53629C6.22971 27.4061 5.97083 27.2562 5.82094 26.9903L5.11241 25.7566C4.96253 25.4908 4.96253 25.1908 5.11241 24.9318Z" fill="#16AC59"/>
<path fill-rule="evenodd" clip-rule="evenodd" d="M5.84227 17.0183L6.31235 16.2072C6.41455 16.0368 6.58487 15.9345 6.78244 15.9345H7.72261C7.92018 15.9345 8.09731 16.0368 8.19269 16.2072L8.66278 17.0183C8.76497 17.1887 8.76497 17.3932 8.66278 17.5636L8.19269 18.3747C8.0905 18.5451 7.92018 18.6474 7.72261 18.6474H6.78244C6.58487 18.6474 6.40773 18.5451 6.31235 18.3747L5.84227 17.5636C5.74008 17.3864 5.74008 17.1887 5.84227 17.0183Z" fill="#16AC59"/>
<path fill-rule="evenodd" clip-rule="evenodd" d="M38.0987 40.5343L37.0087 38.6462C36.7771 38.244 36.3751 38.0123 35.9118 38.0123H33.7317C33.2685 38.0123 32.8665 38.244 32.6349 38.6462L31.5448 40.5343C31.3132 40.9364 31.3132 41.4 31.5448 41.8021L32.6349 43.6902C32.8665 44.0924 33.2685 44.3241 33.7317 44.3241H35.9118C36.3751 44.3241 36.7771 44.0924 37.0087 43.6902L38.0987 41.8021C38.3304 41.4 38.3304 40.9364 38.0987 40.5343Z" fill="#16AC59"/>
<path fill-rule="evenodd" clip-rule="evenodd" d="M38.0987 8.44359L37.0087 6.55548C36.7771 6.15332 36.3751 5.92157 35.9118 5.92157H33.7317C33.2685 5.92157 32.8665 6.15332 32.6349 6.55548L31.5448 8.44359C31.3132 8.84575 31.3132 9.30926 31.5448 9.71142L32.6349 11.5995C32.8665 12.0017 33.2685 12.2334 33.7317 12.2334H35.9118C36.3751 12.2334 36.7771 12.0017 37.0087 11.5995L38.0987 9.71142C38.3304 9.30926 38.3304 8.85257 38.0987 8.44359Z" fill="#16AC59"/>
<path fill-rule="evenodd" clip-rule="evenodd" d="M44.6266 36.7241L43.7477 35.204C43.557 34.8768 43.2368 34.6928 42.8621 34.6928H41.1044C40.7297 34.6928 40.4095 34.8768 40.2187 35.204L39.3398 36.7241C39.1491 37.0512 39.1491 37.4193 39.3398 37.7465L40.2187 39.2665C40.4095 39.5937 40.7297 39.7777 41.1044 39.7777H42.8621C43.2368 39.7777 43.557 39.5937 43.7477 39.2665L44.6266 37.7465C44.8174 37.4193 44.8174 37.0444 44.6266 36.7241Z" fill="#16AC59"/>
<path fill-rule="evenodd" clip-rule="evenodd" d="M44.8034 28.6332L43.8701 27.0109C43.6725 26.6633 43.3251 26.4656 42.9299 26.4656H41.0564C40.6544 26.4656 40.3138 26.6633 40.1162 27.0109L39.1828 28.6332C38.9853 28.9808 38.9853 29.3762 39.1828 29.7238L40.1162 31.3461C40.3138 31.6937 40.6612 31.8914 41.0564 31.8914H42.9299C43.3319 31.8914 43.6725 31.6937 43.8701 31.3461L44.8034 29.7238C45.001 29.3762 45.001 28.9808 44.8034 28.6332Z" fill="#16AC59"/>
<path fill-rule="evenodd" clip-rule="evenodd" d="M44.8034 20.6444L43.8701 19.0222C43.6725 18.6745 43.3251 18.4769 42.9299 18.4769H41.0564C40.6544 18.4769 40.3138 18.6745 40.1162 19.0222L39.1828 20.6444C38.9853 20.9921 38.9853 21.3874 39.1828 21.735L40.1162 23.3573C40.3138 23.7049 40.6612 23.9026 41.0564 23.9026H42.9299C43.3319 23.9026 43.6725 23.7049 43.8701 23.3573L44.8034 21.735C45.001 21.3874 45.001 20.9853 44.8034 20.6444Z" fill="#16AC59"/>
<path fill-rule="evenodd" clip-rule="evenodd" d="M44.6266 12.6216L43.7477 11.1016C43.557 10.7744 43.2368 10.5903 42.8621 10.5903H41.1044C40.7297 10.5903 40.4095 10.7744 40.2187 11.1016L39.3398 12.6216C39.1491 12.9488 39.1491 13.3168 39.3398 13.644L40.2187 15.1641C40.4095 15.4912 40.7297 15.6753 41.1044 15.6753H42.8621C43.2368 15.6753 43.557 15.4912 43.7477 15.1641L44.6266 13.644C44.8174 13.3168 44.8174 12.9488 44.6266 12.6216Z" fill="#16AC59"/>
<path fill-rule="evenodd" clip-rule="evenodd" d="M49.676 33.0638L49.2059 32.2527C49.1037 32.0823 48.9334 31.98 48.7358 31.98H47.7956C47.598 31.98 47.4209 32.0823 47.3255 32.2527L46.8555 33.0638C46.7533 33.2342 46.7533 33.4387 46.8555 33.6091L47.3255 34.4203C47.4277 34.5907 47.598 34.6929 47.7956 34.6929H48.7358C48.9334 34.6929 49.1105 34.5907 49.2059 34.4203L49.676 33.6091C49.7781 33.4319 49.7781 33.2342 49.676 33.0638Z" fill="#16AC59"/>
<path fill-rule="evenodd" clip-rule="evenodd" d="M50.4026 24.9318L49.6941 23.6981C49.5442 23.4322 49.2785 23.2823 48.9787 23.2823H47.5548C47.2483 23.2823 46.9894 23.4322 46.8395 23.6981L46.131 24.9318C45.9811 25.1977 45.9811 25.4976 46.131 25.7566L46.8395 26.9903C46.9894 27.2562 47.2551 27.4061 47.5548 27.4061H48.9787C49.2853 27.4061 49.5442 27.2562 49.6941 26.9903L50.4026 25.7566C50.5593 25.4908 50.5593 25.1908 50.4026 24.9318Z" fill="#16AC59"/>
<path fill-rule="evenodd" clip-rule="evenodd" d="M49.676 17.0183L49.2059 16.2072C49.1037 16.0368 48.9334 15.9345 48.7358 15.9345H47.7956C47.598 15.9345 47.4209 16.0368 47.3255 16.2072L46.8555 17.0183C46.7533 17.1887 46.7533 17.3932 46.8555 17.5636L47.3255 18.3747C47.4277 18.5451 47.598 18.6474 47.7956 18.6474H48.7358C48.9334 18.6474 49.1105 18.5451 49.2059 18.3747L49.676 17.5636C49.7781 17.3864 49.7781 17.1887 49.676 17.0183Z" fill="#16AC59"/>
<path fill-rule="evenodd" clip-rule="evenodd" d="M24.9996 29.267L25.9262 27.6652C26.1237 27.3244 26.4644 27.1267 26.8595 27.1267H28.7058C29.1009 27.1267 29.4416 27.3244 29.6392 27.6652L30.5657 29.267C30.7633 29.6078 30.7633 30.0032 30.5657 30.344L29.6323 31.939C29.4348 32.2798 29.0941 32.4775 28.699 32.4775H26.8527C26.4576 32.4775 26.1169 32.2798 25.9194 31.939L24.9928 30.3372C24.8021 29.9964 24.8021 29.6078 24.9996 29.267Z" fill="#16AC59"/>
<path fill-rule="evenodd" clip-rule="evenodd" d="M24.9996 19.6561L25.9262 18.0542C26.1237 17.7134 26.4644 17.5157 26.8595 17.5157H28.7058C29.1009 17.5157 29.4416 17.7134 29.6392 18.0542L30.5657 19.6561C30.7633 19.9969 30.7633 20.3922 30.5657 20.733L29.6323 22.328C29.4348 22.6688 29.0941 22.8665 28.699 22.8665H26.8527C26.4576 22.8665 26.1169 22.6688 25.9194 22.328L24.9928 20.7262C24.8021 20.3854 24.8021 19.9969 24.9996 19.6561Z" fill="#16AC59"/>
<path d="M199.815 22.2599C199.815 23.8003 198.821 24.7683 196.491 24.7683H195.149V19.9423H197.042C199.148 19.9423 199.815 20.6308 199.815 22.2599ZM188.295 33.1591V30.0849H180.971V26.3905H187.252V23.5277H180.971V19.9219H187.763V16.8477H177.047V33.1659H188.295V33.1591ZM175.058 19.9151V16.8409H160.873V19.9151H166.003V33.1591H169.927V19.9151H175.058ZM159.579 33.1591V30.0849H152.262V26.3905H158.543V23.5277H152.262V19.9219H159.054V16.8477H148.338V33.1659H159.579V33.1591ZM144.727 33.1591V16.8409H140.176L134.957 29.6487L130.406 16.8409H125.624V33.1591H129.548V27.0858L129.296 23.2141L132.648 33.1591H137.035L140.918 23.4936L140.803 27.0926V33.1659H144.727V33.1591ZM118.838 24.9796C118.838 28.0332 117.571 30.344 113.967 30.344C110.642 30.344 109.327 27.9174 109.327 24.9387C109.327 21.9327 110.67 19.6697 114.13 19.6697C117.428 19.6629 118.838 21.9259 118.838 24.9796ZM122.83 25C122.83 19.8946 120.269 16.5615 114.328 16.5615C108.762 16.5615 105.342 19.4243 105.342 24.9523C105.342 30.2008 108.162 33.4317 113.885 33.4317C119.71 33.4385 122.83 30.4326 122.83 25ZM105.09 33.1591L99.5919 24.7342L105.09 16.8409H100.702L97.514 21.8509L94.5573 16.8409H90.054L95.2522 24.8023L89.4068 33.1591H93.7942L97.3028 27.6652L100.559 33.1591H105.09V33.1591ZM88.1123 33.1591V30.0849H80.7886V26.3905H87.07V23.5277H80.7886V19.9219H87.5809V16.8477H76.8644V33.1659H88.1123V33.1591ZM200.687 33.1591H205L201.341 26.5064C203.024 25.5112 203.869 23.9503 203.869 22.1644C203.869 18.5245 201.232 16.8341 197.56 16.8341H191.211V33.1523H195.162V27.5152H196.361C196.661 27.5152 196.961 27.5152 197.24 27.4948L197.54 27.4266L200.687 33.1591ZM73.2604 33.1591V16.8409H69.3362V23.4527H62.4076V16.8409H58.4834V33.1591H62.4076V26.4314H69.3362V33.1591H73.2604V33.1591Z" fill="#323537"/>
</svg>
